<svg xmlns="http://www.w3.org/2000/svg" xmlns:xlink="http://www.w3.org/1999/xlink" contentScriptType="text/ecmascript" width="375" viewBox="0 0 375 375" height="375" version="1.0"><defs><g id="j"><path d="M 10.15625 0.328125 C 8.070312 0.328125 6.390625 0.101562 5.109375 -0.34375 C 3.835938 -0.789062 2.867188 -1.40625 2.203125 -2.1875 C 1.535156 -2.96875 1.085938 -3.875 0.859375 -4.90625 L 7.71875 -4.90625 C 7.71875 -4.539062 7.957031 -4.265625 8.4375 -4.078125 C 8.914062 -3.890625 9.488281 -3.796875 10.15625 -3.796875 C 11.757812 -3.796875 12.5625 -4.164062 12.5625 -4.90625 C 12.5625 -5.539062 12.289062 -5.960938 11.75 -6.171875 C 11.238281 -6.359375 10.359375 -6.453125 9.109375 -6.453125 L 8.84375 -6.453125 L 8.84375 -8.953125 L 9.109375 -8.953125 C 10.359375 -8.953125 11.242188 -9.046875 11.765625 -9.234375 C 12.296875 -9.429688 12.5625 -9.851562 12.5625 -10.5 C 12.5625 -11.226562 11.757812 -11.59375 10.15625 -11.59375 C 9.488281 -11.59375 8.914062 -11.5 8.4375 -11.3125 C 7.957031 -11.125 7.71875 -10.851562 7.71875 -10.5 L 0.859375 -10.5 C 1.085938 -11.519531 1.535156 -12.421875 2.203125 -13.203125 C 2.867188 -13.992188 3.835938 -14.613281 5.109375 -15.0625 C 6.390625 -15.507812 8.070312 -15.734375 10.15625 -15.734375 C 12.238281 -15.734375 13.960938 -15.507812 15.328125 -15.0625 C 16.703125 -14.613281 17.726562 -13.992188 18.40625 -13.203125 C 19.09375 -12.421875 19.4375 -11.519531 19.4375 -10.5 C 19.4375 -9.800781 19.226562 -9.203125 18.8125 -8.703125 C 18.40625 -8.203125 17.765625 -7.863281 16.890625 -7.6875 C 17.765625 -7.519531 18.40625 -7.1875 18.8125 -6.6875 C 19.226562 -6.1875 19.4375 -5.59375 19.4375 -4.90625 C 19.4375 -3.875 19.09375 -2.960938 18.40625 -2.171875 C 17.726562 -1.390625 16.703125 -0.773438 15.328125 -0.328125 C 13.960938 0.109375 12.238281 0.328125 10.15625 0.328125 Z M 10.15625 0.328125"/></g><g id="k"><path d="M 0.328125 2.796875 L 0.328125 1.328125 C 0.890625 1.328125 1.273438 1.207031 1.484375 0.96875 C 1.703125 0.726562 1.8125 0.40625 1.8125 0 L 0.328125 0 L 0.328125 -2.96875 L 3.28125 -2.96875 L 3.28125 0 C 3.28125 0.75 3.132812 1.320312 2.84375 1.71875 C 2.5625 2.125 2.195312 2.40625 1.75 2.5625 C 1.300781 2.71875 0.828125 2.796875 0.328125 2.796875 Z M 0.328125 2.796875"/></g><g id="m"><path d="M 18.984375 0 L 0.859375 0 L 0.859375 -3.8125 C 0.859375 -4.71875 1.117188 -5.460938 1.640625 -6.046875 C 2.160156 -6.628906 2.832031 -7.097656 3.65625 -7.453125 C 4.488281 -7.816406 5.378906 -8.101562 6.328125 -8.3125 C 7.285156 -8.53125 8.207031 -8.710938 9.09375 -8.859375 C 10.269531 -9.046875 11.207031 -9.253906 11.90625 -9.484375 C 12.4375 -9.660156 12.703125 -9.898438 12.703125 -10.203125 C 12.703125 -10.296875 12.675781 -10.394531 12.625 -10.5 C 12.125 -11.238281 11.3125 -11.609375 10.1875 -11.609375 C 9.082031 -11.609375 8.273438 -11.238281 7.765625 -10.5 L 0.90625 -10.5 C 1.132812 -11.53125 1.582031 -12.4375 2.25 -13.21875 C 2.914062 -14 3.882812 -14.613281 5.15625 -15.0625 C 6.425781 -15.507812 8.101562 -15.734375 10.1875 -15.734375 C 12.28125 -15.734375 13.960938 -15.507812 15.234375 -15.0625 C 16.503906 -14.613281 17.472656 -14 18.140625 -13.21875 C 18.804688 -12.4375 19.253906 -11.53125 19.484375 -10.5 C 19.523438 -10.257812 19.546875 -10.03125 19.546875 -9.8125 C 19.546875 -8.78125 19.148438 -7.925781 18.359375 -7.25 C 17.566406 -6.582031 16.492188 -6.078125 15.140625 -5.734375 C 13.796875 -5.398438 12.476562 -5.144531 11.1875 -4.96875 C 10.539062 -4.875 9.953125 -4.773438 9.421875 -4.671875 C 8.898438 -4.566406 8.484375 -4.445312 8.171875 -4.3125 C 7.867188 -4.175781 7.71875 -4.007812 7.71875 -3.8125 L 18.984375 -3.8125 Z M 18.984375 0"/></g><g id="n"><path d="M 10.578125 0 L 4.109375 0 L 4.109375 -11.609375 L 0.640625 -11.609375 L 0.640625 -15.421875 L 10.578125 -15.421875 Z M 10.578125 0"/></g><g id="o"><path d="M 11.65625 0.328125 C 7.84375 0.328125 5.039062 -0.453125 3.25 -2.015625 C 1.65625 -3.410156 0.859375 -5.300781 0.859375 -7.6875 C 0.859375 -10.09375 1.65625 -11.988281 3.25 -13.375 C 5.039062 -14.945312 7.84375 -15.734375 11.65625 -15.734375 C 13.820312 -15.734375 15.625 -15.488281 17.0625 -15 C 18.507812 -14.507812 19.640625 -13.84375 20.453125 -13 C 21.273438 -12.15625 21.835938 -11.1875 22.140625 -10.09375 L 15.21875 -10.09375 C 14.5 -11.09375 13.3125 -11.59375 11.65625 -11.59375 C 10.09375 -11.59375 8.941406 -11.144531 8.203125 -10.25 C 7.617188 -9.519531 7.328125 -8.664062 7.328125 -7.6875 C 7.328125 -6.707031 7.617188 -5.859375 8.203125 -5.140625 C 8.941406 -4.242188 10.09375 -3.796875 11.65625 -3.796875 C 12.914062 -3.796875 13.863281 -3.90625 14.5 -4.125 C 15.132812 -4.34375 15.597656 -4.628906 15.890625 -4.984375 L 13.359375 -4.984375 L 13.359375 -7.6875 L 22.140625 -7.6875 L 22.140625 0.015625 L 19.453125 0.015625 L 18.90625 -1.484375 C 17.195312 -0.273438 14.78125 0.328125 11.65625 0.328125 Z M 11.65625 0.328125"/></g><g id="p"><path d="M 11.65625 0.328125 C 7.84375 0.328125 5.039062 -0.453125 3.25 -2.015625 C 1.65625 -3.410156 0.859375 -5.304688 0.859375 -7.703125 C 0.859375 -10.097656 1.65625 -11.988281 3.25 -13.375 C 5.039062 -14.945312 7.84375 -15.734375 11.65625 -15.734375 C 15.46875 -15.734375 18.269531 -14.945312 20.0625 -13.375 C 21.65625 -11.988281 22.453125 -10.097656 22.453125 -7.703125 C 22.453125 -5.304688 21.65625 -3.410156 20.0625 -2.015625 C 18.269531 -0.453125 15.46875 0.328125 11.65625 0.328125 Z M 11.65625 -3.796875 C 13.21875 -3.796875 14.363281 -4.242188 15.09375 -5.140625 C 15.675781 -5.867188 15.96875 -6.722656 15.96875 -7.703125 C 15.96875 -8.679688 15.675781 -9.53125 15.09375 -10.25 C 14.363281 -11.15625 13.21875 -11.609375 11.65625 -11.609375 C 10.09375 -11.609375 8.941406 -11.15625 8.203125 -10.25 C 7.617188 -9.53125 7.328125 -8.679688 7.328125 -7.703125 C 7.328125 -6.722656 7.617188 -5.867188 8.203125 -5.140625 C 8.941406 -4.242188 10.09375 -3.796875 11.65625 -3.796875 Z M 11.65625 -3.796875"/></g><g id="q"><path d="M 4.859375 0 L 1.90625 0 L 1.90625 -2.96875 L 4.859375 -2.96875 Z M 4.859375 -3.8125 L 1.90625 -3.8125 L 0.859375 -10.375 L 0.859375 -15.421875 L 5.90625 -15.421875 L 5.90625 -10.375 Z M 4.859375 -3.8125"/></g><g id="b"><path d="M 20.339844 -3.296875 L 22.765625 -10.011719 L 36.707031 -10.011719 L 38.851562 -15.851562 L 24.910156 -15.851562 L 26.261719 -19.625 L 41.871094 -19.625 L 44.136719 -25.863281 L 10.765625 -25.863281 L 1.390625 0 L 14.976562 0 C 15.335938 0 15.773438 -0.121094 16.089844 -0.316406 L 18.988281 -1.789062 C 19.625 -2.105469 20.101562 -2.660156 20.339844 -3.296875 Z M 20.339844 -3.296875"/></g><g id="c"><path d="M 33.054688 -25.863281 L 26.617188 -8.183594 C 26.261719 -7.109375 25.066406 -6.238281 23.996094 -6.238281 L 21.136719 -6.238281 C 20.023438 -6.238281 19.507812 -7.109375 19.863281 -8.183594 L 26.300781 -25.863281 L 10.765625 -25.863281 L 3.179688 -4.964844 C 2.183594 -2.226562 3.574219 0 6.355469 0 L 29.914062 0 C 30.628906 0 31.34375 -0.160156 32.058594 -0.597656 L 39.410156 -4.726562 C 40.402344 -5.285156 41.4375 -6.15625 41.953125 -7.546875 L 48.585938 -25.863281 Z M 33.054688 -25.863281"/></g><g id="d"><path d="M 28.683594 -25.863281 L 10.925781 -25.863281 L 3.855469 -6.355469 C 3.457031 -5.242188 3.574219 -4.132812 4.289062 -3.457031 L 7.828125 -0.597656 C 8.222656 -0.160156 8.859375 0 9.613281 0 L 30.191406 0 L 32.457031 -6.238281 L 23.558594 -6.238281 C 22.445312 -6.238281 21.890625 -7.109375 22.246094 -8.183594 Z M 28.683594 -25.863281"/></g><g id="e"><path d="M 7.667969 -19.625 L 17.242188 -19.625 L 10.128906 0 L 23.675781 0 C 24.074219 0 24.511719 -0.121094 24.828125 -0.316406 L 27.730469 -1.789062 C 28.324219 -2.105469 28.800781 -2.660156 29.039062 -3.296875 L 34.960938 -19.625 L 44.535156 -19.625 L 46.800781 -25.863281 L 9.933594 -25.863281 Z M 7.667969 -19.625"/></g><g id="f"><path d="M 16.925781 0 L 21.414062 -12.394531 L 23.796875 -9.972656 L 26.976562 -9.972656 L 23.359375 0 L 34.722656 0 C 35.078125 0 35.515625 -0.121094 35.835938 -0.316406 L 38.734375 -1.789062 C 39.371094 -2.105469 39.847656 -2.660156 40.085938 -3.296875 L 48.269531 -25.863281 L 32.734375 -25.863281 L 29.039062 -15.613281 L 22.605469 -15.613281 L 26.300781 -25.863281 L 10.765625 -25.863281 L 1.390625 0 Z M 16.925781 0"/></g><g id="g"><path d="M 18.035156 0 L 21.851562 -10.527344 L 25.066406 0 L 41.59375 0 L 41.675781 -0.238281 L 37.582031 -9.613281 L 38.296875 -9.613281 C 39.210938 -9.613281 40.003906 -9.773438 41 -10.6875 L 43.660156 -13.03125 C 44.257812 -13.585938 44.574219 -14.023438 44.773438 -14.621094 L 46.164062 -18.355469 C 48.03125 -23.480469 45.128906 -25.863281 39.171875 -25.863281 L 10.765625 -25.863281 L 1.390625 0 Z M 25.148438 -19.625 L 27.09375 -19.625 C 28.128906 -19.625 28.761719 -18.792969 28.324219 -17.679688 L 27.648438 -15.730469 C 27.253906 -14.699219 26.023438 -13.785156 24.910156 -13.785156 L 23.042969 -13.785156 Z M 25.148438 -19.625"/></g><g id="h"><path d="M 9.296875 0 L 28.324219 0 C 34.324219 0 38.894531 -2.382812 40.761719 -7.507812 L 45.128906 -19.507812 C 45.566406 -20.699219 45.328125 -21.808594 44.652344 -22.484375 L 41.117188 -25.265625 C 40.71875 -25.703125 40.085938 -25.863281 39.289062 -25.863281 L 20.261719 -25.863281 C 14.339844 -25.863281 9.773438 -23.480469 7.90625 -18.355469 L 3.535156 -6.355469 C 3.136719 -5.242188 3.257812 -4.132812 3.972656 -3.457031 L 7.46875 -0.597656 C 7.867188 -0.160156 8.5 0 9.296875 0 Z M 19.664062 -8.183594 L 23.121094 -17.679688 C 23.558594 -18.792969 24.75 -19.625 25.78125 -19.625 L 27.570312 -19.625 C 28.683594 -19.625 29.320312 -18.792969 28.882812 -17.679688 L 25.425781 -8.183594 C 25.066406 -7.109375 23.835938 -6.238281 22.804688 -6.238281 L 21.015625 -6.238281 C 19.902344 -6.238281 19.308594 -7.109375 19.664062 -8.183594 Z M 19.664062 -8.183594"/></g><g id="i"><path d="M 26.261719 -19.625 L 42.984375 -19.625 L 45.25 -25.863281 L 10.765625 -25.863281 L 3.695312 -6.355469 C 3.296875 -5.242188 3.417969 -4.132812 4.132812 -3.457031 L 7.667969 -0.597656 C 8.066406 -0.160156 8.660156 0 9.457031 0 L 35.875 0 L 38.136719 -6.238281 L 23.398438 -6.238281 C 22.289062 -6.238281 21.730469 -7.109375 22.089844 -8.183594 L 22.765625 -10.011719 L 37.820312 -10.011719 L 39.964844 -15.851562 L 24.910156 -15.851562 Z M 26.261719 -19.625"/></g><clipPath id="a"><path d="M 180 14 L 368 14 L 368 194.25 L 180 194.25 Z M 180 14"/></clipPath></defs><path fill="#050A30" d="M 273.066406 157.367188 C 267.109375 165.324219 255.835938 166.9375 247.886719 160.976562 C 239.941406 155.011719 238.328125 143.730469 244.285156 135.773438 C 250.242188 127.816406 261.515625 126.203125 269.460938 132.167969 C 277.410156 138.128906 279.023438 149.410156 273.066406 157.367188"/><path fill="#050A30" d="M 250 140.0625 L 316.523438 69.320312 L 267.347656 153.078125 Z M 250 140.0625"/><g clip-path="url(#a)"><path fill="#FF1616" d="M 220.074219 21.511719 C 204.472656 27.425781 191.015625 36.542969 180.171875 47.828125 C 188.585938 46.535156 197.007812 46.253906 205.28125 46.921875 C 209.148438 44.863281 213.179688 43.011719 217.382812 41.421875 C 270.921875 21.136719 330.753906 48.132812 351.019531 101.722656 C 363.03125 133.484375 358.449219 167.457031 341.578125 194.089844 C 366.402344 164.828125 375.003906 123.308594 360.46875 84.867188 C 339.175781 28.566406 276.320312 0.203125 220.074219 21.511719"/></g><path fill="#050A30" d="M 61.234375 49.671875 C 59.878906 58.734375 58.570312 67.46875 57.3125 75.871094 C 64.6875 76.210938 72.113281 76.15625 79.582031 75.859375 C 80.792969 67.769531 82.039062 59.4375 83.320312 50.871094 C 75.929688 50.65625 68.5625 50.285156 61.234375 49.671875"/><path fill="#050A30" d="M 52.679688 106.839844 C 51.550781 114.382812 50.472656 121.601562 49.441406 128.488281 C 56.839844 128.660156 64.304688 128.359375 71.816406 127.753906 C 72.863281 120.765625 73.945312 113.53125 75.0625 106.0625 C 67.546875 106.683594 60.078125 107 52.679688 106.839844"/><path fill="#050A30" d="M 31.652344 76.683594 C 30.402344 85.0625 29.199219 93.085938 28.050781 100.757812 C 35.25 102.25 42.550781 103.066406 49.925781 103.378906 C 51.070312 95.722656 52.265625 87.730469 53.511719 79.398438 C 46.15625 78.96875 38.863281 78.113281 31.652344 76.683594"/><path fill="#050A30" d="M 23.859375 128.765625 C 22.847656 135.519531 21.894531 141.921875 20.984375 147.972656 C 28.199219 149.390625 35.488281 150.253906 42.84375 150.707031 C 43.753906 144.609375 44.71875 138.171875 45.734375 131.394531 C 38.359375 131.070312 31.058594 130.25 23.859375 128.765625"/><path fill="#050A30" d="M 29.035156 72.300781 C 30.300781 63.835938 31.621094 55.019531 32.992188 45.855469 C 25.78125 44.457031 18.621094 42.695312 11.53125 40.480469 C 10.238281 49.136719 8.976562 57.539062 7.757812 65.683594 C 14.75 68.558594 21.851562 70.71875 29.035156 72.300781"/><path fill="#050A30" d="M 21.140625 125.0625 C 22.167969 118.195312 23.25 110.976562 24.382812 103.414062 C 17.210938 101.714844 10.148438 99.3125 3.21875 96.023438 C 2.101562 103.507812 1.019531 110.734375 -0.0234375 117.707031 C 6.90625 120.972656 13.972656 123.367188 21.140625 125.0625"/><path fill="#050A30" d="M 112.097656 51.121094 C 110.957031 58.734375 109.828125 66.285156 108.707031 73.769531 C 116.234375 73.074219 123.769531 72.316406 131.292969 71.640625 C 132.335938 64.671875 133.367188 57.785156 134.382812 50.988281 C 126.957031 51.007812 119.523438 51.085938 112.097656 51.121094"/><path fill="#050A30" d="M 104.40625 102.511719 C 103.3125 109.832031 102.226562 117.089844 101.148438 124.285156 C 108.734375 123.195312 116.332031 122.03125 123.910156 120.972656 C 125.011719 113.605469 126.101562 106.328125 127.179688 99.132812 C 119.59375 100.21875 111.996094 101.40625 104.40625 102.511719"/><path fill="#050A30" d="M 82.347656 79.238281 C 81.160156 87.203125 80 94.945312 78.875 102.464844 C 86.398438 101.78125 93.964844 100.816406 101.546875 99.753906 C 102.648438 92.390625 103.761719 84.941406 104.890625 77.402344 C 97.355469 78.148438 89.835938 78.8125 82.347656 79.238281"/><path fill="#050A30" d="M 74.671875 130.546875 C 73.632812 137.496094 72.628906 144.21875 71.65625 150.722656 C 79.128906 150.351562 86.640625 149.757812 94.164062 149.082031 C 95.210938 142.113281 96.265625 135.058594 97.332031 127.914062 C 89.757812 128.949219 82.195312 129.886719 74.671875 130.546875"/><path fill="#050A30" d="M 210.210938 56.261719 C 209.410156 61.632812 208.554688 67.347656 207.644531 73.414062 C 214.828125 74.996094 221.929688 77.15625 228.921875 80.03125 C 229.875 73.644531 230.792969 67.515625 231.671875 61.640625 C 224.582031 59.425781 217.425781 57.664062 210.210938 56.261719"/><path fill="#050A30" d="M 203.855469 98.714844 C 202.816406 105.683594 201.722656 113.003906 200.574219 120.667969 C 207.742188 122.363281 214.808594 124.753906 221.742188 128.019531 C 222.871094 120.460938 223.960938 113.15625 225.015625 106.109375 C 218.085938 102.820312 211.027344 100.414062 203.855469 98.714844"/><path fill="#050A30" d="M 150.324219 93.257812 C 151.371094 86.242188 152.390625 79.453125 153.371094 72.886719 C 145.886719 73.316406 138.367188 73.976562 130.832031 74.722656 C 129.78125 81.714844 128.726562 88.800781 127.652344 95.96875 C 135.234375 94.90625 142.800781 93.945312 150.324219 93.257812"/><path fill="#050A30" d="M 182.210938 72.730469 C 181.28125 78.929688 180.304688 85.464844 179.273438 92.34375 C 186.648438 92.660156 193.949219 93.472656 201.144531 94.964844 C 202.171875 88.101562 203.144531 81.59375 204.066406 75.445312 C 196.859375 74.011719 189.566406 73.15625 182.210938 72.730469"/><path fill="#050A30" d="M 175.023438 120.746094 C 173.863281 128.5 172.652344 136.59375 171.390625 145.027344 C 178.742188 145.480469 186.039062 146.34375 193.246094 147.761719 C 194.515625 139.28125 195.730469 131.148438 196.898438 123.375 C 189.695312 121.890625 182.398438 121.070312 175.023438 120.746094"/><path fill="#050A30" d="M 179.367188 69.84375 C 180.285156 63.714844 181.152344 57.917969 181.96875 52.449219 C 174.640625 51.835938 167.273438 51.464844 159.882812 51.25 C 158.992188 57.210938 158.0625 63.414062 157.097656 69.855469 C 164.566406 69.558594 171.996094 69.507812 179.367188 69.84375"/><path fill="#050A30" d="M 172.273438 117.238281 C 173.417969 109.59375 174.515625 102.277344 175.558594 95.296875 C 168.160156 95.132812 160.691406 95.449219 153.175781 96.070312 C 152.121094 103.132812 151.027344 110.433594 149.898438 117.972656 C 157.410156 117.367188 164.878906 117.070312 172.273438 117.238281"/><path fill="#050A30" d="M 142.578125 145.015625 C 143.78125 136.984375 144.949219 129.175781 146.085938 121.59375 C 138.5625 122.253906 131 123.191406 123.421875 124.226562 C 122.316406 131.613281 121.199219 139.089844 120.070312 146.648438 C 127.59375 145.976562 135.101562 145.382812 142.578125 145.015625"/><path fill="#050A30" d="M 46.089844 150.882812 C 45.175781 157.011719 44.304688 162.808594 43.488281 168.277344 C 50.816406 168.890625 58.183594 169.261719 65.574219 169.472656 C 66.464844 163.515625 67.394531 157.3125 68.359375 150.867188 C 60.890625 151.164062 53.460938 151.21875 46.089844 150.882812"/><path fill="#050A30" d="M 97.484375 148.78125 C 96.429688 155.828125 95.386719 162.808594 94.347656 169.726562 C 101.777344 169.6875 109.210938 169.613281 116.636719 169.59375 C 117.789062 161.859375 118.9375 154.214844 120.070312 146.648438 C 112.546875 147.324219 105.011719 148.085938 97.484375 148.78125"/><path fill="#050A30" d="M 196.421875 148.421875 C 195.15625 156.886719 193.835938 165.703125 192.464844 174.867188 C 199.675781 176.269531 206.835938 178.03125 213.925781 180.242188 C 215.222656 171.585938 216.476562 163.183594 217.695312 155.039062 C 210.703125 152.167969 203.605469 150.007812 196.421875 148.421875"/><path fill="#050A30" d="M 164.222656 171.054688 C 165.578125 161.988281 166.882812 153.257812 168.144531 144.851562 C 160.773438 144.515625 153.339844 144.566406 145.875 144.867188 C 144.664062 152.957031 143.417969 161.285156 142.136719 169.855469 C 149.527344 170.070312 156.890625 170.441406 164.222656 171.054688"/><g fill="#FF1616"><use x="115.684" y="239.809" xmlns:xlink="http://www.w3.org/1999/xlink" xlink:href="#b" xlink:type="simple" xlink:actuate="onLoad" xlink:show="embed"/></g><g fill="#FF1616"><use x="151.835" y="239.809" xmlns:xlink="http://www.w3.org/1999/xlink" xlink:href="#c" xlink:type="simple" xlink:actuate="onLoad" xlink:show="embed"/></g><g fill="#FF1616"><use x="192.833" y="239.809" xmlns:xlink="http://www.w3.org/1999/xlink" xlink:href="#d" xlink:type="simple" xlink:actuate="onLoad" xlink:show="embed"/></g><g fill="#FF1616"><use x="223.979" y="239.809" xmlns:xlink="http://www.w3.org/1999/xlink" xlink:href="#d" xlink:type="simple" xlink:actuate="onLoad" xlink:show="embed"/></g><g fill="#FF1616"><use x="33.102" y="295.309" xmlns:xlink="http://www.w3.org/1999/xlink" xlink:href="#e" xlink:type="simple" xlink:actuate="onLoad" xlink:show="embed"/></g><g fill="#FF1616"><use x="71.478" y="295.309" xmlns:xlink="http://www.w3.org/1999/xlink" xlink:href="#f" xlink:type="simple" xlink:actuate="onLoad" xlink:show="embed"/></g><g fill="#FF1616"><use x="112.158" y="295.309" xmlns:xlink="http://www.w3.org/1999/xlink" xlink:href="#g" xlink:type="simple" xlink:actuate="onLoad" xlink:show="embed"/></g><g fill="#FF1616"><use x="152.759" y="295.309" xmlns:xlink="http://www.w3.org/1999/xlink" xlink:href="#h" xlink:type="simple" xlink:actuate="onLoad" xlink:show="embed"/></g><g fill="#FF1616"><use x="192.406" y="295.309" xmlns:xlink="http://www.w3.org/1999/xlink" xlink:href="#e" xlink:type="simple" xlink:actuate="onLoad" xlink:show="embed"/></g><g fill="#FF1616"><use x="230.782" y="295.309" xmlns:xlink="http://www.w3.org/1999/xlink" xlink:href="#e" xlink:type="simple" xlink:actuate="onLoad" xlink:show="embed"/></g><g fill="#FF1616"><use x="269.158" y="295.309" xmlns:xlink="http://www.w3.org/1999/xlink" xlink:href="#d" xlink:type="simple" xlink:actuate="onLoad" xlink:show="embed"/></g><g fill="#FF1616"><use x="300.303" y="295.309" xmlns:xlink="http://www.w3.org/1999/xlink" xlink:href="#i" xlink:type="simple" xlink:actuate="onLoad" xlink:show="embed"/></g><g fill="#050A30"><use x="116.355" y="336.797" xmlns:xlink="http://www.w3.org/1999/xlink" xlink:href="#j" xlink:type="simple" xlink:actuate="onLoad" xlink:show="embed"/></g><g fill="#050A30"><use x="136.644" y="336.797" xmlns:xlink="http://www.w3.org/1999/xlink" xlink:href="#k" xlink:type="simple" xlink:actuate="onLoad" xlink:show="embed"/></g><g fill="#050A30"><use x="140.253" y="336.797" xmlns:xlink="http://www.w3.org/1999/xlink" xlink:href="#l" xlink:type="simple" xlink:actuate="onLoad" xlink:show="embed"/></g><g fill="#050A30"><use x="145.709" y="336.797" xmlns:xlink="http://www.w3.org/1999/xlink" xlink:href="#m" xlink:type="simple" xlink:actuate="onLoad" xlink:show="embed"/></g><g fill="#050A30"><use x="166.104" y="336.797" xmlns:xlink="http://www.w3.org/1999/xlink" xlink:href="#k" xlink:type="simple" xlink:actuate="onLoad" xlink:show="embed"/></g><g fill="#050A30"><use x="169.713" y="336.797" xmlns:xlink="http://www.w3.org/1999/xlink" xlink:href="#l" xlink:type="simple" xlink:actuate="onLoad" xlink:show="embed"/></g><g fill="#050A30"><use x="175.169" y="336.797" xmlns:xlink="http://www.w3.org/1999/xlink" xlink:href="#n" xlink:type="simple" xlink:actuate="onLoad" xlink:show="embed"/></g><g fill="#050A30"><use x="187.465" y="336.797" xmlns:xlink="http://www.w3.org/1999/xlink" xlink:href="#l" xlink:type="simple" xlink:actuate="onLoad" xlink:show="embed"/></g><g fill="#050A30"><use x="192.921" y="336.797" xmlns:xlink="http://www.w3.org/1999/xlink" xlink:href="#l" xlink:type="simple" xlink:actuate="onLoad" xlink:show="embed"/></g><g fill="#050A30"><use x="198.375" y="336.797" xmlns:xlink="http://www.w3.org/1999/xlink" xlink:href="#o" xlink:type="simple" xlink:actuate="onLoad" xlink:show="embed"/></g><g fill="#050A30"><use x="221.8" y="336.797" xmlns:xlink="http://www.w3.org/1999/xlink" xlink:href="#p" xlink:type="simple" xlink:actuate="onLoad" xlink:show="embed"/></g><g fill="#050A30"><use x="245.106" y="336.797" xmlns:xlink="http://www.w3.org/1999/xlink" xlink:href="#q" xlink:type="simple" xlink:actuate="onLoad" xlink:show="embed"/></g><g fill="#050A30"><use x="251.872" y="336.797" xmlns:xlink="http://www.w3.org/1999/xlink" xlink:href="#q" xlink:type="simple" xlink:actuate="onLoad" xlink:show="embed"/></g></svg>