<svg xmlns="http://www.w3.org/2000/svg" xmlns:xlink="http://www.w3.org/1999/xlink" contentScriptType="text/ecmascript" width="75" viewBox="0 0 75 30" height="30" version="1.0"><defs><g id="f"><path d="M 4.867188 -3.265625 L 1.050781 -3.265625 C 0.972656 -3.265625 0.921875 -3.246094 0.863281 -3.1875 L 0.273438 -2.601562 C 0.234375 -2.5625 0.195312 -2.496094 0.195312 -2.429688 L 0.195312 -0.0976562 C 0.195312 -0.046875 0.242188 0 0.292969 0 L 0.785156 0 C 0.835938 0 0.882812 -0.046875 0.882812 -0.0976562 L 0.882812 -1.027344 L 4.15625 -1.027344 C 4.207031 -1.027344 4.253906 -1.070312 4.253906 -1.125 L 4.253906 -1.574219 C 4.253906 -1.628906 4.207031 -1.671875 4.15625 -1.671875 L 0.882812 -1.671875 L 0.882812 -2.261719 C 0.882812 -2.304688 0.894531 -2.339844 0.929688 -2.371094 L 1.136719 -2.566406 C 1.175781 -2.605469 1.203125 -2.621094 1.234375 -2.621094 L 4.867188 -2.621094 C 4.921875 -2.621094 4.964844 -2.664062 4.964844 -2.71875 L 4.964844 -3.167969 C 4.964844 -3.222656 4.921875 -3.265625 4.867188 -3.265625 Z M 4.867188 -3.265625"/></g><g id="g"><path d="M 0.195312 -3.167969 L 0.195312 -0.804688 C 0.195312 -0.738281 0.214844 -0.679688 0.269531 -0.632812 L 0.910156 -0.078125 C 0.96875 -0.03125 1.019531 0 1.105469 0 L 4.058594 0 C 4.144531 0 4.195312 -0.03125 4.253906 -0.078125 L 4.894531 -0.632812 C 4.945312 -0.679688 4.964844 -0.738281 4.964844 -0.804688 L 4.964844 -3.167969 C 4.964844 -3.222656 4.921875 -3.265625 4.867188 -3.265625 L 4.429688 -3.265625 C 4.378906 -3.265625 4.332031 -3.222656 4.332031 -3.167969 L 4.332031 -1.070312 C 4.332031 -1.027344 4.320312 -0.992188 4.285156 -0.960938 L 3.972656 -0.667969 C 3.953125 -0.652344 3.933594 -0.648438 3.90625 -0.648438 L 1.253906 -0.648438 C 1.222656 -0.648438 1.203125 -0.652344 1.1875 -0.667969 L 0.875 -0.960938 C 0.84375 -0.992188 0.828125 -1.027344 0.828125 -1.070312 L 0.828125 -3.167969 C 0.828125 -3.222656 0.785156 -3.265625 0.730469 -3.265625 L 0.292969 -3.265625 C 0.242188 -3.265625 0.195312 -3.222656 0.195312 -3.167969 Z M 0.195312 -3.167969"/></g><g id="h"><path d="M 0.195312 -3.167969 L 0.195312 -0.835938 C 0.195312 -0.769531 0.234375 -0.707031 0.273438 -0.667969 L 0.863281 -0.078125 C 0.921875 -0.0195312 0.972656 0 1.050781 0 L 4.867188 0 C 4.921875 0 4.964844 -0.046875 4.964844 -0.0976562 L 4.964844 -0.550781 C 4.964844 -0.601562 4.921875 -0.648438 4.867188 -0.648438 L 1.300781 -0.648438 C 1.269531 -0.648438 1.242188 -0.660156 1.203125 -0.699219 L 0.929688 -0.960938 C 0.894531 -0.992188 0.882812 -1.027344 0.882812 -1.070312 L 0.882812 -3.167969 C 0.882812 -3.222656 0.835938 -3.265625 0.785156 -3.265625 L 0.292969 -3.265625 C 0.242188 -3.265625 0.195312 -3.222656 0.195312 -3.167969 Z M 0.195312 -3.167969"/></g><g id="j"><path d="M 5.78125 -3.265625 L 0.292969 -3.265625 C 0.242188 -3.265625 0.195312 -3.222656 0.195312 -3.167969 L 0.195312 -2.679688 C 0.195312 -2.625 0.242188 -2.582031 0.292969 -2.582031 L 2.699219 -2.582031 L 2.699219 -0.0976562 C 2.699219 -0.046875 2.746094 0 2.796875 0 L 3.285156 0 C 3.339844 0 3.386719 -0.046875 3.386719 -0.0976562 L 3.386719 -2.582031 L 5.78125 -2.582031 C 5.835938 -2.582031 5.882812 -2.625 5.882812 -2.679688 L 5.882812 -3.167969 C 5.882812 -3.222656 5.835938 -3.265625 5.78125 -3.265625 Z M 5.78125 -3.265625"/></g><g id="k"><path d="M 4.867188 -3.265625 L 4.378906 -3.265625 C 4.324219 -3.265625 4.28125 -3.222656 4.28125 -3.167969 L 4.28125 -2 L 0.882812 -2 L 0.882812 -3.167969 C 0.882812 -3.222656 0.835938 -3.265625 0.785156 -3.265625 L 0.292969 -3.265625 C 0.242188 -3.265625 0.195312 -3.222656 0.195312 -3.167969 L 0.195312 -0.0976562 C 0.195312 -0.046875 0.242188 0 0.292969 0 L 0.785156 0 C 0.835938 0 0.882812 -0.046875 0.882812 -0.0976562 L 0.882812 -1.351562 L 4.28125 -1.351562 L 4.28125 -0.0976562 C 4.28125 -0.046875 4.324219 0 4.378906 0 L 4.867188 0 C 4.921875 0 4.964844 -0.046875 4.964844 -0.0976562 L 4.964844 -3.167969 C 4.964844 -3.222656 4.921875 -3.265625 4.867188 -3.265625 Z M 4.867188 -3.265625"/></g><g id="l"><path d="M 5.082031 -2.621094 L 4.496094 -3.195312 C 4.449219 -3.242188 4.390625 -3.265625 4.324219 -3.265625 L 0.292969 -3.265625 C 0.242188 -3.265625 0.195312 -3.222656 0.195312 -3.167969 L 0.195312 -0.0976562 C 0.195312 -0.046875 0.242188 0 0.292969 0 L 0.746094 0 C 0.796875 0 0.84375 -0.046875 0.84375 -0.0976562 L 0.84375 -0.71875 L 3.886719 -0.71875 L 4.292969 -0.0585938 C 4.320312 -0.0195312 4.351562 0 4.390625 0 L 4.882812 0 C 4.960938 0 5 -0.0703125 4.960938 -0.136719 L 4.527344 -0.828125 L 5.082031 -1.386719 C 5.121094 -1.425781 5.164062 -1.488281 5.164062 -1.554688 L 5.164062 -2.425781 C 5.164062 -2.507812 5.136719 -2.566406 5.082031 -2.621094 Z M 0.84375 -2.632812 L 4.117188 -2.632812 C 4.164062 -2.632812 4.195312 -2.621094 4.226562 -2.585938 L 4.421875 -2.378906 L 4.457031 -2.339844 C 4.46875 -2.320312 4.476562 -2.300781 4.476562 -2.273438 L 4.476562 -1.726562 C 4.476562 -1.679688 4.464844 -1.648438 4.429688 -1.613281 L 4.222656 -1.417969 C 4.183594 -1.378906 4.15625 -1.367188 4.125 -1.367188 L 0.84375 -1.367188 Z M 0.84375 -2.632812"/></g><g id="m"><path d="M 0.195312 -0.835938 C 0.195312 -0.769531 0.222656 -0.710938 0.269531 -0.667969 L 0.84375 -0.078125 C 0.894531 -0.0273438 0.953125 0 1.039062 0 L 4.125 0 C 4.207031 0 4.265625 -0.0273438 4.320312 -0.078125 L 4.894531 -0.667969 C 4.941406 -0.710938 4.964844 -0.769531 4.964844 -0.835938 L 4.964844 -2.429688 C 4.964844 -2.496094 4.941406 -2.554688 4.894531 -2.601562 L 4.320312 -3.1875 C 4.265625 -3.242188 4.207031 -3.265625 4.125 -3.265625 L 1.039062 -3.265625 C 0.953125 -3.265625 0.894531 -3.242188 0.84375 -3.1875 L 0.269531 -2.601562 C 0.222656 -2.554688 0.195312 -2.496094 0.195312 -2.429688 Z M 0.828125 -1.007812 L 0.828125 -2.261719 C 0.828125 -2.304688 0.84375 -2.339844 0.875 -2.371094 L 1.085938 -2.566406 L 1.125 -2.601562 C 1.136719 -2.613281 1.15625 -2.621094 1.1875 -2.621094 L 3.972656 -2.621094 C 4 -2.621094 4.019531 -2.613281 4.039062 -2.601562 L 4.078125 -2.566406 L 4.285156 -2.371094 C 4.320312 -2.339844 4.332031 -2.304688 4.332031 -2.261719 L 4.332031 -1.007812 C 4.332031 -0.960938 4.320312 -0.929688 4.285156 -0.894531 L 4.078125 -0.699219 L 4.039062 -0.667969 C 4.019531 -0.652344 4 -0.648438 3.972656 -0.648438 L 1.1875 -0.648438 C 1.15625 -0.648438 1.136719 -0.652344 1.125 -0.667969 L 1.085938 -0.699219 L 0.875 -0.894531 C 0.84375 -0.929688 0.828125 -0.960938 0.828125 -1.007812 Z M 0.828125 -1.007812"/></g><g id="n"><path d="M 0.929688 -2.371094 L 1.136719 -2.566406 C 1.175781 -2.605469 1.203125 -2.621094 1.234375 -2.621094 L 4.867188 -2.621094 C 4.921875 -2.621094 4.964844 -2.664062 4.964844 -2.71875 L 4.964844 -3.167969 C 4.964844 -3.222656 4.921875 -3.265625 4.867188 -3.265625 L 1.050781 -3.265625 C 0.972656 -3.265625 0.921875 -3.246094 0.863281 -3.1875 L 0.273438 -2.601562 C 0.234375 -2.5625 0.195312 -2.496094 0.195312 -2.429688 L 0.195312 -0.84375 C 0.195312 -0.757812 0.222656 -0.699219 0.273438 -0.648438 L 0.863281 -0.0703125 C 0.910156 -0.0273438 0.96875 0 1.03125 0 L 4.867188 0 C 4.921875 0 4.964844 -0.046875 4.964844 -0.0976562 L 4.964844 -0.535156 C 4.964844 -0.589844 4.921875 -0.632812 4.867188 -0.632812 L 1.242188 -0.632812 C 1.195312 -0.632812 1.164062 -0.648438 1.128906 -0.679688 L 0.902344 -0.929688 C 0.886719 -0.949219 0.882812 -0.96875 0.882812 -0.992188 L 0.882812 -1.351562 L 4.546875 -1.351562 C 4.601562 -1.351562 4.644531 -1.398438 4.644531 -1.449219 L 4.644531 -1.902344 C 4.644531 -1.953125 4.601562 -2 4.546875 -2 L 0.882812 -2 L 0.882812 -2.261719 C 0.882812 -2.304688 0.894531 -2.339844 0.929688 -2.371094 Z M 0.929688 -2.371094"/></g><g id="o"><path d="M 1.710938 -0.742188 L 1.710938 -0.882812 C 1.710938 -0.90625 1.699219 -0.929688 1.683594 -0.941406 L 1.527344 -1.097656 C 1.507812 -1.121094 1.488281 -1.125 1.460938 -1.125 L 0.101562 -1.125 C 0.0820312 -1.125 0.0664062 -1.109375 0.0664062 -1.09375 L 0.0664062 -0.9375 C 0.0664062 -0.917969 0.0820312 -0.902344 0.101562 -0.902344 L 1.398438 -0.902344 C 1.410156 -0.902344 1.417969 -0.898438 1.433594 -0.886719 L 1.460938 -0.863281 C 1.472656 -0.851562 1.476562 -0.839844 1.476562 -0.824219 L 1.476562 -0.792969 C 1.476562 -0.785156 1.472656 -0.777344 1.46875 -0.773438 L 1.457031 -0.757812 L 1.390625 -0.6875 C 1.378906 -0.675781 1.367188 -0.671875 1.351562 -0.671875 L 0.257812 -0.671875 C 0.238281 -0.671875 0.222656 -0.65625 0.222656 -0.636719 L 0.222656 -0.484375 C 0.222656 -0.464844 0.238281 -0.449219 0.257812 -0.449219 L 1.351562 -0.449219 C 1.367188 -0.449219 1.378906 -0.445312 1.390625 -0.433594 L 1.457031 -0.363281 L 1.46875 -0.347656 C 1.472656 -0.34375 1.476562 -0.335938 1.476562 -0.328125 L 1.476562 -0.300781 C 1.476562 -0.285156 1.472656 -0.273438 1.460938 -0.261719 L 1.433594 -0.242188 C 1.417969 -0.226562 1.410156 -0.222656 1.398438 -0.222656 L 0.101562 -0.222656 C 0.0820312 -0.222656 0.0664062 -0.207031 0.0664062 -0.1875 L 0.0664062 -0.0351562 C 0.0664062 -0.015625 0.0820312 0 0.101562 0 L 1.460938 0 C 1.488281 0 1.507812 -0.0078125 1.527344 -0.0273438 L 1.683594 -0.183594 C 1.699219 -0.199219 1.710938 -0.21875 1.710938 -0.242188 L 1.710938 -0.378906 C 1.710938 -0.40625 1.703125 -0.429688 1.683594 -0.445312 L 1.566406 -0.5625 L 1.683594 -0.675781 C 1.703125 -0.695312 1.710938 -0.714844 1.710938 -0.742188 Z M 1.710938 -0.742188"/></g><g id="p"><path d="M 0.316406 -0.144531 L 0.277344 -0.210938 C 0.273438 -0.21875 0.269531 -0.226562 0.257812 -0.230469 C 0.253906 -0.234375 0.242188 -0.238281 0.234375 -0.238281 L 0.15625 -0.238281 C 0.148438 -0.238281 0.140625 -0.234375 0.128906 -0.230469 C 0.121094 -0.226562 0.117188 -0.21875 0.113281 -0.210938 L 0.0742188 -0.144531 C 0.0703125 -0.136719 0.0664062 -0.128906 0.0664062 -0.117188 C 0.0664062 -0.109375 0.0703125 -0.0976562 0.0742188 -0.09375 L 0.113281 -0.0273438 C 0.113281 -0.0234375 0.117188 -0.0195312 0.121094 -0.0117188 L 0.078125 -0.0117188 C 0.0703125 -0.0117188 0.0664062 -0.0078125 0.0664062 -0.00390625 L 0.0664062 0.0507812 C 0.0664062 0.0546875 0.0703125 0.0585938 0.078125 0.0585938 L 0.199219 0.0585938 C 0.21875 0.0585938 0.234375 0.0507812 0.242188 0.0351562 L 0.273438 -0.0195312 L 0.277344 -0.0273438 L 0.316406 -0.09375 C 0.320312 -0.0976562 0.324219 -0.109375 0.324219 -0.117188 C 0.324219 -0.128906 0.320312 -0.136719 0.316406 -0.144531 Z M 0.316406 -0.144531"/></g><g id="r"><path d="M 0.0664062 -1.09375 L 0.0664062 -0.9375 C 0.0664062 -0.917969 0.0820312 -0.902344 0.101562 -0.902344 L 1.375 -0.902344 C 1.386719 -0.902344 1.394531 -0.894531 1.410156 -0.886719 L 1.460938 -0.839844 C 1.46875 -0.828125 1.476562 -0.816406 1.476562 -0.800781 L 1.476562 -0.613281 C 1.476562 -0.601562 1.472656 -0.597656 1.46875 -0.589844 L 1.433594 -0.550781 C 1.421875 -0.539062 1.410156 -0.535156 1.394531 -0.535156 L 0.148438 -0.535156 C 0.105469 -0.535156 0.0664062 -0.496094 0.0664062 -0.453125 L 0.0664062 -0.0820312 C 0.0664062 -0.0351562 0.105469 0 0.148438 0 L 1.65625 0 C 1.671875 0 1.6875 -0.015625 1.6875 -0.0351562 L 1.6875 -0.1875 C 1.6875 -0.207031 1.671875 -0.222656 1.65625 -0.222656 L 0.304688 -0.222656 L 0.304688 -0.316406 L 1.492188 -0.316406 C 1.511719 -0.316406 1.535156 -0.328125 1.550781 -0.339844 L 1.683594 -0.46875 C 1.703125 -0.488281 1.710938 -0.507812 1.710938 -0.539062 L 1.710938 -0.859375 C 1.710938 -0.882812 1.699219 -0.90625 1.683594 -0.917969 L 1.503906 -1.097656 C 1.484375 -1.121094 1.464844 -1.125 1.4375 -1.125 L 0.101562 -1.125 C 0.0820312 -1.125 0.0664062 -1.109375 0.0664062 -1.09375 Z M 0.0664062 -1.09375"/></g><g id="s"><path d="M 0.851562 -0.238281 L 0.605469 -0.238281 L 0.605469 -1.09375 C 0.605469 -1.109375 0.589844 -1.125 0.570312 -1.125 L 0.199219 -1.125 C 0.183594 -1.125 0.167969 -1.109375 0.167969 -1.09375 L 0.167969 -0.921875 C 0.167969 -0.90625 0.183594 -0.890625 0.199219 -0.890625 L 0.371094 -0.890625 L 0.371094 -0.234375 L 0.101562 -0.234375 C 0.0820312 -0.234375 0.0664062 -0.21875 0.0664062 -0.199219 L 0.0664062 -0.03125 C 0.0664062 -0.0117188 0.0820312 0.00390625 0.101562 0.00390625 L 0.851562 0 C 0.871094 0 0.886719 -0.015625 0.886719 -0.0351562 L 0.886719 -0.203125 C 0.886719 -0.21875 0.871094 -0.238281 0.851562 -0.238281 Z M 0.851562 -0.238281"/></g><g id="t"><path d="M 1.527344 -0.667969 L 1.675781 -0.667969 C 1.695312 -0.667969 1.710938 -0.683594 1.710938 -0.699219 L 1.710938 -0.835938 C 1.710938 -0.859375 1.703125 -0.878906 1.6875 -0.894531 L 1.488281 -1.097656 C 1.46875 -1.117188 1.449219 -1.125 1.421875 -1.125 L 0.363281 -1.125 C 0.335938 -1.125 0.316406 -1.121094 0.296875 -1.097656 L 0.09375 -0.894531 C 0.0820312 -0.882812 0.0664062 -0.859375 0.0664062 -0.835938 L 0.0664062 -0.289062 C 0.0664062 -0.261719 0.078125 -0.242188 0.09375 -0.222656 L 0.296875 -0.0234375 C 0.3125 -0.0078125 0.332031 0 0.355469 0 L 1.675781 0 C 1.695312 0 1.710938 -0.015625 1.710938 -0.0351562 L 1.710938 -0.519531 C 1.710938 -0.539062 1.695312 -0.554688 1.675781 -0.554688 L 0.554688 -0.554688 C 0.535156 -0.554688 0.519531 -0.539062 0.519531 -0.519531 L 0.519531 -0.363281 C 0.519531 -0.347656 0.535156 -0.332031 0.554688 -0.332031 L 1.488281 -0.332031 L 1.488281 -0.21875 L 0.429688 -0.21875 C 0.410156 -0.21875 0.402344 -0.222656 0.390625 -0.234375 L 0.320312 -0.304688 L 0.3125 -0.320312 C 0.304688 -0.328125 0.304688 -0.332031 0.304688 -0.34375 L 0.304688 -0.777344 C 0.304688 -0.792969 0.308594 -0.804688 0.320312 -0.816406 L 0.390625 -0.886719 C 0.40625 -0.898438 0.414062 -0.902344 0.425781 -0.902344 L 1.371094 -0.902344 C 1.386719 -0.902344 1.394531 -0.894531 1.40625 -0.886719 L 1.476562 -0.816406 C 1.492188 -0.804688 1.492188 -0.792969 1.492188 -0.777344 L 1.492188 -0.699219 C 1.492188 -0.683594 1.507812 -0.667969 1.527344 -0.667969 Z M 1.527344 -0.667969"/></g><g id="u"><path d="M 0.0664062 -0.289062 C 0.0664062 -0.265625 0.078125 -0.246094 0.09375 -0.230469 L 0.289062 -0.0273438 C 0.308594 -0.0078125 0.328125 0 0.359375 0 L 1.421875 0 C 1.449219 0 1.46875 -0.0078125 1.488281 -0.0273438 L 1.6875 -0.230469 C 1.703125 -0.246094 1.710938 -0.265625 1.710938 -0.289062 L 1.710938 -0.835938 C 1.710938 -0.859375 1.703125 -0.878906 1.6875 -0.894531 L 1.488281 -1.097656 C 1.46875 -1.117188 1.449219 -1.125 1.421875 -1.125 L 0.359375 -1.125 C 0.328125 -1.125 0.308594 -1.117188 0.289062 -1.097656 L 0.09375 -0.894531 C 0.078125 -0.878906 0.0664062 -0.859375 0.0664062 -0.835938 Z M 0.285156 -0.347656 L 0.285156 -0.777344 C 0.285156 -0.792969 0.289062 -0.804688 0.300781 -0.816406 L 0.375 -0.886719 L 0.386719 -0.894531 C 0.390625 -0.902344 0.398438 -0.902344 0.410156 -0.902344 L 1.371094 -0.902344 C 1.378906 -0.902344 1.386719 -0.902344 1.390625 -0.894531 L 1.40625 -0.886719 L 1.476562 -0.816406 C 1.488281 -0.804688 1.492188 -0.792969 1.492188 -0.777344 L 1.492188 -0.347656 C 1.492188 -0.332031 1.488281 -0.320312 1.476562 -0.308594 L 1.40625 -0.242188 L 1.390625 -0.230469 C 1.386719 -0.226562 1.378906 -0.222656 1.371094 -0.222656 L 0.410156 -0.222656 C 0.398438 -0.222656 0.390625 -0.226562 0.386719 -0.230469 L 0.375 -0.242188 L 0.300781 -0.308594 C 0.289062 -0.320312 0.285156 -0.332031 0.285156 -0.347656 Z M 0.285156 -0.347656"/></g><g id="v"><path d="M 0.136719 -0.316406 L 0.257812 -0.316406 C 0.277344 -0.316406 0.292969 -0.332031 0.292969 -0.347656 L 0.316406 -1.09375 C 0.316406 -1.109375 0.300781 -1.125 0.28125 -1.125 L 0.113281 -1.125 C 0.09375 -1.125 0.078125 -1.109375 0.078125 -1.09375 L 0.101562 -0.347656 C 0.101562 -0.332031 0.117188 -0.316406 0.136719 -0.316406 Z M 0.15625 0 C 0.148438 0 0.140625 -0.00390625 0.128906 -0.0078125 C 0.121094 -0.0117188 0.117188 -0.0195312 0.113281 -0.0273438 L 0.0742188 -0.09375 C 0.0703125 -0.0976562 0.0664062 -0.109375 0.0664062 -0.117188 C 0.0664062 -0.128906 0.0703125 -0.136719 0.0742188 -0.144531 L 0.113281 -0.210938 C 0.117188 -0.21875 0.121094 -0.226562 0.128906 -0.230469 C 0.140625 -0.234375 0.148438 -0.238281 0.15625 -0.238281 L 0.234375 -0.238281 C 0.242188 -0.238281 0.253906 -0.234375 0.257812 -0.230469 C 0.269531 -0.226562 0.273438 -0.21875 0.277344 -0.210938 L 0.316406 -0.144531 C 0.320312 -0.136719 0.324219 -0.128906 0.324219 -0.117188 C 0.324219 -0.109375 0.320312 -0.0976562 0.316406 -0.09375 L 0.277344 -0.0273438 C 0.273438 -0.0195312 0.269531 -0.0117188 0.257812 -0.0078125 C 0.253906 -0.00390625 0.242188 0 0.234375 0 Z M 0.15625 0"/></g><clipPath id="a"><path d="M 62 7 L 65.519531 7 L 65.519531 10 L 62 10 Z M 62 7"/></clipPath><clipPath id="b"><path d="M 63 8 L 65.519531 8 L 65.519531 9 L 63 9 Z M 63 8"/></clipPath><clipPath id="c"><path d="M 29 1.902344 L 62 1.902344 L 62 8 L 29 8 Z M 29 1.902344"/></clipPath><clipPath id="d"><path d="M 9.632812 5.546875 L 65.519531 5.546875 L 65.519531 12.148438 L 9.632812 12.148438 Z M 9.632812 5.546875"/></clipPath><clipPath id="e"><path d="M 30.828125 7.613281 L 49.386719 7.613281 L 49.386719 13.515625 L 30.828125 13.515625 Z M 30.828125 7.613281"/></clipPath></defs><path fill="#E34234" d="M 13.546875 10.03125 C 13.1875 10.246094 12.835938 10.476562 12.496094 10.726562 C 12.414062 10.792969 12.328125 10.855469 12.246094 10.925781 C 12.207031 10.957031 12.164062 10.992188 12.125 11.027344 C 12.085938 11.0625 12.042969 11.097656 12.003906 11.132812 C 11.964844 11.171875 11.925781 11.207031 11.890625 11.246094 C 11.851562 11.289062 11.8125 11.324219 11.777344 11.367188 L 11.667969 11.496094 L 11.628906 11.554688 L 11.621094 11.558594 C 11.578125 11.558594 11.539062 11.5625 11.496094 11.566406 C 11.417969 11.578125 11.335938 11.589844 11.253906 11.613281 C 11.214844 11.625 11.175781 11.636719 11.136719 11.652344 C 11.097656 11.664062 11.058594 11.683594 11.019531 11.703125 C 11.003906 11.710938 10.984375 11.722656 10.964844 11.734375 C 10.949219 11.742188 10.929688 11.753906 10.914062 11.769531 C 10.898438 11.785156 10.878906 11.796875 10.863281 11.8125 L 10.820312 11.859375 C 10.800781 11.878906 10.796875 11.910156 10.8125 11.933594 C 10.832031 11.964844 10.871094 11.972656 10.898438 11.953125 L 10.910156 11.949219 L 10.949219 11.921875 C 10.964844 11.914062 10.980469 11.90625 10.996094 11.898438 C 11.007812 11.894531 11.023438 11.886719 11.039062 11.882812 C 11.058594 11.878906 11.070312 11.871094 11.089844 11.867188 C 11.121094 11.859375 11.15625 11.855469 11.1875 11.851562 C 11.222656 11.847656 11.257812 11.84375 11.292969 11.84375 C 11.359375 11.839844 11.429688 11.847656 11.5 11.855469 C 11.535156 11.859375 11.570312 11.863281 11.605469 11.871094 L 11.65625 11.878906 C 11.671875 11.882812 11.691406 11.886719 11.703125 11.890625 L 11.714844 11.890625 C 11.78125 11.894531 11.84375 11.863281 11.878906 11.800781 L 11.941406 11.683594 L 12.023438 11.566406 C 12.054688 11.527344 12.085938 11.488281 12.117188 11.449219 C 12.144531 11.410156 12.179688 11.375 12.214844 11.335938 C 12.246094 11.300781 12.28125 11.261719 12.316406 11.226562 C 12.355469 11.191406 12.386719 11.15625 12.425781 11.121094 C 12.5 11.050781 12.574219 10.980469 12.648438 10.910156 C 12.957031 10.640625 13.285156 10.382812 13.621094 10.148438 L 13.625 10.144531 C 13.652344 10.125 13.660156 10.085938 13.640625 10.054688 C 13.625 10.023438 13.582031 10.015625 13.546875 10.03125"/><path fill="#E34234" d="M 11.671875 11.144531 L 11.679688 11.140625 C 11.679688 11.140625 11.6875 11.132812 11.703125 11.121094 C 11.71875 11.109375 11.742188 11.089844 11.769531 11.070312 C 11.824219 11.027344 11.902344 10.96875 11.976562 10.914062 C 12.015625 10.882812 12.054688 10.855469 12.089844 10.824219 C 12.125 10.796875 12.160156 10.769531 12.1875 10.742188 C 12.242188 10.695312 12.277344 10.65625 12.277344 10.65625 C 12.285156 10.644531 12.289062 10.628906 12.285156 10.613281 C 12.277344 10.589844 12.253906 10.574219 12.230469 10.582031 C 12.230469 10.582031 12.179688 10.59375 12.109375 10.628906 C 12.039062 10.660156 11.953125 10.710938 11.871094 10.773438 C 11.828125 10.804688 11.789062 10.835938 11.753906 10.871094 C 11.722656 10.90625 11.691406 10.941406 11.667969 10.976562 C 11.644531 11.007812 11.628906 11.039062 11.617188 11.0625 C 11.609375 11.085938 11.605469 11.101562 11.605469 11.101562 C 11.601562 11.113281 11.601562 11.125 11.613281 11.136719 C 11.625 11.15625 11.652344 11.160156 11.671875 11.144531"/><g clip-path="url(#a)"><path fill="#E34234" d="M 65.234375 8.953125 L 65.230469 8.953125 C 65.230469 8.953125 65.140625 8.945312 64.980469 8.933594 C 64.898438 8.925781 64.804688 8.917969 64.691406 8.90625 C 64.582031 8.894531 64.457031 8.882812 64.320312 8.863281 C 64.183594 8.847656 64.035156 8.828125 63.882812 8.804688 C 63.726562 8.777344 63.566406 8.746094 63.398438 8.714844 C 63.234375 8.679688 63.0625 8.636719 62.890625 8.589844 C 62.847656 8.578125 62.804688 8.566406 62.761719 8.554688 C 62.738281 8.542969 62.71875 8.535156 62.703125 8.519531 C 62.667969 8.492188 62.652344 8.449219 62.65625 8.40625 C 62.65625 8.386719 62.664062 8.367188 62.675781 8.351562 C 62.679688 8.34375 62.691406 8.335938 62.695312 8.328125 C 62.695312 8.328125 62.699219 8.324219 62.699219 8.324219 C 62.703125 8.320312 62.71875 8.3125 62.726562 8.308594 L 62.738281 8.300781 L 62.746094 8.296875 L 62.773438 8.285156 L 62.835938 8.257812 C 62.875 8.238281 62.914062 8.222656 62.953125 8.207031 C 63.117188 8.140625 63.285156 8.085938 63.445312 8.03125 C 63.609375 7.984375 63.765625 7.933594 63.917969 7.894531 C 64.070312 7.855469 64.214844 7.816406 64.347656 7.78125 C 64.613281 7.714844 64.839844 7.660156 64.996094 7.625 C 65.152344 7.585938 65.242188 7.566406 65.242188 7.566406 C 65.273438 7.558594 65.296875 7.53125 65.292969 7.496094 C 65.289062 7.460938 65.257812 7.433594 65.222656 7.4375 C 65.222656 7.4375 65.128906 7.441406 64.96875 7.460938 C 64.804688 7.476562 64.574219 7.507812 64.300781 7.554688 C 64.160156 7.578125 64.011719 7.605469 63.855469 7.636719 C 63.699219 7.671875 63.53125 7.710938 63.363281 7.753906 C 63.191406 7.804688 63.015625 7.851562 62.839844 7.921875 C 62.796875 7.9375 62.753906 7.957031 62.710938 7.976562 L 62.609375 8.019531 L 62.601562 8.023438 L 62.597656 8.023438 L 62.585938 8.03125 L 62.582031 8.03125 L 62.566406 8.039062 C 62.558594 8.046875 62.550781 8.050781 62.535156 8.0625 C 62.519531 8.074219 62.503906 8.085938 62.488281 8.097656 C 62.460938 8.125 62.433594 8.148438 62.414062 8.179688 C 62.375 8.234375 62.347656 8.304688 62.34375 8.378906 C 62.324219 8.519531 62.386719 8.664062 62.496094 8.753906 C 62.546875 8.800781 62.609375 8.828125 62.671875 8.851562 C 62.71875 8.863281 62.761719 8.875 62.808594 8.886719 C 62.988281 8.9375 63.167969 8.972656 63.34375 9.003906 C 63.691406 9.066406 64.019531 9.09375 64.296875 9.109375 C 64.4375 9.117188 64.566406 9.117188 64.679688 9.117188 C 64.796875 9.117188 64.894531 9.113281 64.976562 9.113281 C 65.058594 9.109375 65.121094 9.101562 65.164062 9.101562 C 65.207031 9.097656 65.230469 9.097656 65.230469 9.097656 C 65.269531 9.09375 65.296875 9.066406 65.300781 9.03125 C 65.304688 8.992188 65.273438 8.957031 65.234375 8.953125"/></g><g clip-path="url(#b)"><path fill="#E34234" d="M 63.984375 8.234375 C 63.980469 8.234375 63.976562 8.234375 63.976562 8.234375 C 63.917969 8.234375 63.871094 8.285156 63.875 8.339844 C 63.875 8.398438 63.925781 8.441406 63.984375 8.441406 L 65.136719 8.398438 C 65.171875 8.398438 65.195312 8.371094 65.199219 8.339844 C 65.199219 8.304688 65.171875 8.277344 65.136719 8.273438 L 63.984375 8.234375"/></g><path fill="#070A0E" d="M 59.558594 11.421875 C 58.632812 9.890625 56.941406 8.9375 55.140625 8.9375 C 53.339844 8.9375 51.648438 9.890625 50.726562 11.421875 C 50.691406 11.476562 50.707031 11.546875 50.761719 11.582031 C 50.816406 11.617188 50.886719 11.605469 50.925781 11.554688 C 51.894531 10.277344 53.546875 9.449219 55.140625 9.449219 C 56.734375 9.449219 58.390625 10.277344 59.355469 11.554688 C 59.378906 11.585938 59.417969 11.601562 59.453125 11.601562 C 59.476562 11.601562 59.5 11.597656 59.519531 11.582031 C 59.574219 11.546875 59.589844 11.476562 59.558594 11.421875"/><g clip-path="url(#c)"><path fill="#070A0E" d="M 29.585938 7.125 L 29.238281 7.125 C 29.160156 7.125 29.125 7.023438 29.1875 6.976562 C 29.316406 6.875 29.472656 6.753906 29.503906 6.730469 C 29.554688 6.6875 29.636719 6.628906 29.742188 6.550781 C 29.953125 6.398438 30.261719 6.175781 30.664062 5.910156 C 31.472656 5.371094 32.652344 4.644531 34.148438 3.917969 C 34.898438 3.554688 35.730469 3.199219 36.632812 2.878906 C 37.535156 2.566406 38.511719 2.289062 39.546875 2.109375 C 39.808594 2.066406 40.070312 2.023438 40.335938 1.996094 C 40.601562 1.960938 40.871094 1.945312 41.140625 1.925781 C 41.277344 1.914062 41.414062 1.914062 41.550781 1.910156 L 41.753906 1.902344 L 41.8125 1.902344 L 41.859375 1.90625 L 41.960938 1.90625 C 42.230469 1.910156 42.5 1.914062 42.773438 1.917969 C 43.3125 1.917969 43.867188 1.953125 44.417969 1.980469 C 44.972656 1.996094 45.523438 2.054688 46.074219 2.09375 C 47.179688 2.183594 48.28125 2.3125 49.359375 2.460938 C 50.4375 2.609375 51.496094 2.78125 52.519531 2.96875 C 53.539062 3.15625 54.519531 3.355469 55.449219 3.566406 C 55.914062 3.664062 56.363281 3.78125 56.796875 3.882812 C 57.234375 3.984375 57.652344 4.101562 58.050781 4.207031 C 58.453125 4.308594 58.835938 4.421875 59.199219 4.527344 C 59.382812 4.582031 59.558594 4.632812 59.730469 4.683594 C 59.902344 4.738281 60.070312 4.789062 60.230469 4.84375 C 60.554688 4.945312 60.855469 5.039062 61.132812 5.140625 C 61.285156 5.195312 61.433594 5.246094 61.570312 5.292969 C 61.585938 5.296875 61.582031 5.316406 61.566406 5.316406 C 55.585938 5.167969 52.253906 5.667969 50.84375 5.960938 C 50.824219 5.964844 50.816406 5.941406 50.832031 5.933594 C 51.050781 5.804688 51.253906 5.644531 51.441406 5.464844 L 52.476562 4.4375 C 52.523438 4.390625 52.554688 4.328125 52.550781 4.261719 C 52.550781 4.15625 52.480469 4.070312 52.382812 4.042969 C 51.691406 3.835938 50.265625 3.433594 48.722656 3.085938 C 47.839844 2.886719 46.941406 2.75 46.039062 2.667969 L 46.023438 2.664062 C 45.476562 2.621094 44.929688 2.5625 44.390625 2.539062 C 43.84375 2.507812 43.308594 2.46875 42.761719 2.464844 C 42.492188 2.457031 42.222656 2.449219 41.953125 2.445312 L 41.851562 2.441406 L 41.757812 2.441406 L 41.558594 2.445312 C 41.429688 2.449219 41.300781 2.449219 41.167969 2.457031 C 40.910156 2.472656 40.652344 2.484375 40.394531 2.515625 C 40.140625 2.542969 39.886719 2.582031 39.636719 2.621094 C 38.636719 2.785156 37.683594 3.042969 36.796875 3.34375 C 35.914062 3.648438 35.09375 3.992188 34.355469 4.339844 C 32.875 5.039062 31.707031 5.75 30.90625 6.269531 C 30.507812 6.53125 30.203125 6.746094 29.996094 6.894531 C 29.890625 6.96875 29.8125 7.023438 29.761719 7.0625 C 29.761719 7.0625 29.757812 7.066406 29.757812 7.066406 C 29.710938 7.101562 29.648438 7.125 29.585938 7.125"/></g><g clip-path="url(#d)"><path fill="#070A0E" d="M 65.511719 6.128906 C 65.558594 6.335938 65.417969 6.539062 65.207031 6.570312 L 65.203125 6.574219 C 65.121094 6.582031 65.027344 6.589844 64.921875 6.605469 C 64.492188 6.65625 63.878906 6.699219 63.097656 6.75 C 62.316406 6.792969 61.371094 6.84375 60.285156 6.890625 C 59.203125 6.929688 57.980469 6.980469 56.644531 7.03125 C 53.976562 7.125 50.867188 7.21875 47.53125 7.308594 C 44.199219 7.390625 40.644531 7.476562 37.089844 7.566406 C 33.535156 7.660156 29.980469 7.757812 26.644531 7.84375 C 24.980469 7.890625 23.371094 7.9375 21.84375 7.992188 C 21.078125 8.011719 20.347656 8.054688 19.632812 8.109375 C 18.925781 8.175781 18.238281 8.25 17.589844 8.359375 C 17.507812 8.371094 17.425781 8.382812 17.34375 8.398438 C 17.265625 8.410156 17.183594 8.425781 17.105469 8.441406 C 16.945312 8.472656 16.789062 8.5 16.636719 8.53125 C 16.328125 8.597656 16.023438 8.660156 15.734375 8.734375 C 15.445312 8.804688 15.164062 8.890625 14.890625 8.96875 C 14.625 9.058594 14.359375 9.136719 14.113281 9.230469 C 13.109375 9.59375 12.289062 10.03125 11.667969 10.457031 C 11.046875 10.882812 10.632812 11.300781 10.386719 11.605469 C 10.265625 11.757812 10.183594 11.882812 10.136719 11.964844 C 10.109375 12.003906 10.09375 12.035156 10.085938 12.054688 C 10.074219 12.074219 10.070312 12.082031 10.070312 12.082031 L 9.632812 11.886719 C 9.632812 11.886719 9.636719 11.875 9.652344 11.84375 C 9.667969 11.8125 9.691406 11.773438 9.71875 11.722656 C 9.78125 11.621094 9.875 11.480469 10.011719 11.308594 C 10.285156 10.96875 10.734375 10.515625 11.394531 10.0625 C 12.050781 9.609375 12.910156 9.15625 13.945312 8.78125 C 14.199219 8.683594 14.472656 8.601562 14.75 8.511719 C 15.027344 8.429688 15.316406 8.339844 15.613281 8.269531 C 15.910156 8.191406 16.222656 8.128906 16.535156 8.054688 C 16.695312 8.023438 16.855469 7.996094 17.015625 7.964844 C 17.097656 7.949219 17.179688 7.933594 17.257812 7.917969 C 17.34375 7.902344 17.425781 7.890625 17.507812 7.875 C 18.171875 7.761719 18.867188 7.683594 19.589844 7.613281 C 20.308594 7.550781 21.0625 7.503906 21.824219 7.476562 C 23.351562 7.417969 24.960938 7.359375 26.628906 7.304688 C 29.960938 7.199219 33.515625 7.085938 37.070312 6.972656 C 38.847656 6.914062 40.625 6.851562 42.375 6.789062 C 44.121094 6.726562 45.84375 6.664062 47.507812 6.601562 L 47.515625 6.601562 C 47.890625 6.585938 48.261719 6.550781 48.632812 6.496094 L 49.695312 6.335938 C 49.898438 6.304688 50.09375 6.257812 50.28125 6.191406 C 50.328125 6.171875 50.378906 6.164062 50.429688 6.164062 C 51.929688 6.15625 57.371094 6.117188 62.964844 5.855469 C 62.988281 5.855469 63.011719 5.855469 63.035156 5.851562 C 63.804688 5.789062 64.410156 5.734375 64.808594 5.683594 C 64.90625 5.671875 64.996094 5.660156 65.070312 5.648438 C 65.144531 5.636719 65.203125 5.625 65.25 5.617188 C 65.253906 5.617188 65.253906 5.617188 65.253906 5.617188 C 65.332031 5.601562 65.410156 5.652344 65.425781 5.734375 L 65.511719 6.128906"/></g><path fill="#070A0E" d="M 33.84375 6.605469 C 33.890625 6.523438 33.914062 6.417969 33.902344 6.3125 C 33.886719 6.183594 33.847656 6.070312 33.785156 5.972656 C 33.695312 5.84375 33.539062 5.765625 33.378906 5.773438 C 32.59375 5.816406 32.273438 6.125 32.152344 6.308594 C 32.109375 6.371094 32.105469 6.445312 32.136719 6.511719 L 32.257812 6.777344 C 32.3125 6.894531 32.457031 6.984375 32.585938 6.984375 L 32.765625 6.984375 C 32.789062 6.984375 32.8125 6.972656 32.820312 6.949219 C 32.832031 6.925781 32.824219 6.902344 32.8125 6.890625 L 32.746094 6.792969 L 33.527344 6.792969 C 33.664062 6.792969 33.773438 6.726562 33.84375 6.605469"/><path fill="#070A0E" d="M 22.605469 11.625 C 21.71875 10.148438 20.085938 9.230469 18.347656 9.230469 C 16.609375 9.230469 14.980469 10.148438 14.089844 11.625 C 14.054688 11.679688 14.070312 11.75 14.125 11.785156 C 14.179688 11.820312 14.25 11.808594 14.285156 11.757812 C 15.21875 10.527344 16.8125 9.730469 18.347656 9.730469 C 19.882812 9.730469 21.476562 10.527344 22.410156 11.757812 C 22.433594 11.789062 22.46875 11.804688 22.503906 11.804688 C 22.527344 11.804688 22.550781 11.796875 22.570312 11.785156 C 22.625 11.75 22.640625 11.679688 22.605469 11.625"/><g clip-path="url(#e)"><path fill="#070A0E" d="M 48.523438 7.988281 C 48.273438 8.121094 47.980469 8.292969 47.667969 8.527344 C 47.355469 8.757812 47.015625 9.042969 46.6875 9.398438 C 46.359375 9.746094 46.042969 10.167969 45.726562 10.605469 C 45.5625 10.824219 45.394531 11.042969 45.210938 11.257812 C 45.027344 11.472656 44.824219 11.675781 44.601562 11.855469 C 44.371094 12.035156 44.113281 12.175781 43.839844 12.292969 C 43.769531 12.320312 43.699219 12.34375 43.628906 12.371094 C 43.558594 12.398438 43.484375 12.414062 43.414062 12.4375 C 43.269531 12.484375 43.117188 12.515625 42.96875 12.550781 C 42.363281 12.679688 41.730469 12.730469 41.09375 12.765625 C 40.453125 12.804688 39.816406 12.84375 39.191406 12.886719 C 38.5625 12.925781 37.945312 12.96875 37.347656 13.007812 C 36.152344 13.089844 35.039062 13.171875 34.082031 13.246094 C 33.125 13.320312 32.332031 13.390625 31.773438 13.4375 C 31.214844 13.484375 30.898438 13.515625 30.898438 13.515625 C 30.898438 13.515625 31.21875 13.503906 31.777344 13.484375 C 32.335938 13.460938 33.132812 13.433594 34.089844 13.390625 C 35.050781 13.347656 36.164062 13.292969 37.363281 13.226562 C 37.960938 13.191406 38.578125 13.160156 39.207031 13.125 C 39.832031 13.085938 40.472656 13.046875 41.109375 13.011719 C 41.746094 12.972656 42.390625 12.917969 43.019531 12.785156 C 43.171875 12.746094 43.328125 12.714844 43.480469 12.664062 C 43.558594 12.640625 43.632812 12.621094 43.707031 12.589844 C 43.78125 12.5625 43.855469 12.53125 43.929688 12.503906 C 44.21875 12.375 44.496094 12.21875 44.738281 12.027344 C 44.976562 11.832031 45.183594 11.613281 45.367188 11.390625 C 45.550781 11.164062 45.71875 10.9375 45.875 10.710938 C 46.191406 10.261719 46.480469 9.847656 46.792969 9.492188 C 47.105469 9.136719 47.425781 8.839844 47.722656 8.597656 C 48.023438 8.355469 48.304688 8.171875 48.546875 8.03125 C 48.785156 7.890625 48.984375 7.796875 49.121094 7.738281 C 49.257812 7.683594 49.335938 7.660156 49.335938 7.660156 C 49.335938 7.660156 49.257812 7.675781 49.117188 7.726562 C 48.976562 7.777344 48.769531 7.859375 48.523438 7.988281"/></g><path fill="#070A0E" d="M 46.398438 6.351562 C 46.527344 6.351562 46.636719 6.273438 46.675781 6.15625 L 47.675781 3.171875 C 47.679688 3.160156 47.675781 3.148438 47.667969 3.140625 C 47.664062 3.128906 47.652344 3.121094 47.640625 3.121094 L 47.527344 3.101562 C 47.433594 3.089844 47.339844 3.144531 47.308594 3.230469 L 46.144531 6.296875 C 46.140625 6.308594 46.144531 6.324219 46.152344 6.335938 C 46.160156 6.34375 46.171875 6.351562 46.183594 6.351562 L 46.398438 6.351562"/><g fill="#070A0E"><use x="2.168" y="21.562" xmlns:xlink="http://www.w3.org/1999/xlink" xlink:href="#f" xlink:type="simple" xlink:actuate="onLoad" xlink:show="embed"/></g><g fill="#070A0E"><use x="7.67" y="21.562" xmlns:xlink="http://www.w3.org/1999/xlink" xlink:href="#g" xlink:type="simple" xlink:actuate="onLoad" xlink:show="embed"/></g><g fill="#070A0E"><use x="13.171" y="21.562" xmlns:xlink="http://www.w3.org/1999/xlink" xlink:href="#h" xlink:type="simple" xlink:actuate="onLoad" xlink:show="embed"/></g><g fill="#070A0E"><use x="18.673" y="21.562" xmlns:xlink="http://www.w3.org/1999/xlink" xlink:href="#h" xlink:type="simple" xlink:actuate="onLoad" xlink:show="embed"/></g><g fill="#070A0E"><use x="24.175" y="21.562" xmlns:xlink="http://www.w3.org/1999/xlink" xlink:href="#i" xlink:type="simple" xlink:actuate="onLoad" xlink:show="embed"/></g><g fill="#070A0E"><use x="26.214" y="21.562" xmlns:xlink="http://www.w3.org/1999/xlink" xlink:href="#j" xlink:type="simple" xlink:actuate="onLoad" xlink:show="embed"/></g><g fill="#070A0E"><use x="32.631" y="21.562" xmlns:xlink="http://www.w3.org/1999/xlink" xlink:href="#k" xlink:type="simple" xlink:actuate="onLoad" xlink:show="embed"/></g><g fill="#070A0E"><use x="38.133" y="21.562" xmlns:xlink="http://www.w3.org/1999/xlink" xlink:href="#l" xlink:type="simple" xlink:actuate="onLoad" xlink:show="embed"/></g><g fill="#070A0E"><use x="43.831" y="21.562" xmlns:xlink="http://www.w3.org/1999/xlink" xlink:href="#m" xlink:type="simple" xlink:actuate="onLoad" xlink:show="embed"/></g><g fill="#070A0E"><use x="49.332" y="21.562" xmlns:xlink="http://www.w3.org/1999/xlink" xlink:href="#j" xlink:type="simple" xlink:actuate="onLoad" xlink:show="embed"/></g><g fill="#070A0E"><use x="55.749" y="21.562" xmlns:xlink="http://www.w3.org/1999/xlink" xlink:href="#j" xlink:type="simple" xlink:actuate="onLoad" xlink:show="embed"/></g><g fill="#070A0E"><use x="62.166" y="21.562" xmlns:xlink="http://www.w3.org/1999/xlink" xlink:href="#h" xlink:type="simple" xlink:actuate="onLoad" xlink:show="embed"/></g><g fill="#070A0E"><use x="67.668" y="21.562" xmlns:xlink="http://www.w3.org/1999/xlink" xlink:href="#n" xlink:type="simple" xlink:actuate="onLoad" xlink:show="embed"/></g><g fill="#E34234"><use x="50.476" y="25.393" xmlns:xlink="http://www.w3.org/1999/xlink" xlink:href="#o" xlink:type="simple" xlink:actuate="onLoad" xlink:show="embed"/></g><g fill="#E34234"><use x="52.669" y="25.393" xmlns:xlink="http://www.w3.org/1999/xlink" xlink:href="#p" xlink:type="simple" xlink:actuate="onLoad" xlink:show="embed"/></g><g fill="#E34234"><use x="53.475" y="25.393" xmlns:xlink="http://www.w3.org/1999/xlink" xlink:href="#q" xlink:type="simple" xlink:actuate="onLoad" xlink:show="embed"/></g><g fill="#E34234"><use x="54.475" y="25.393" xmlns:xlink="http://www.w3.org/1999/xlink" xlink:href="#r" xlink:type="simple" xlink:actuate="onLoad" xlink:show="embed"/></g><g fill="#E34234"><use x="56.668" y="25.393" xmlns:xlink="http://www.w3.org/1999/xlink" xlink:href="#p" xlink:type="simple" xlink:actuate="onLoad" xlink:show="embed"/></g><g fill="#E34234"><use x="57.475" y="25.393" xmlns:xlink="http://www.w3.org/1999/xlink" xlink:href="#q" xlink:type="simple" xlink:actuate="onLoad" xlink:show="embed"/></g><g fill="#E34234"><use x="58.474" y="25.393" xmlns:xlink="http://www.w3.org/1999/xlink" xlink:href="#s" xlink:type="simple" xlink:actuate="onLoad" xlink:show="embed"/></g><g fill="#E34234"><use x="59.844" y="25.393" xmlns:xlink="http://www.w3.org/1999/xlink" xlink:href="#q" xlink:type="simple" xlink:actuate="onLoad" xlink:show="embed"/></g><g fill="#E34234"><use x="60.843" y="25.393" xmlns:xlink="http://www.w3.org/1999/xlink" xlink:href="#t" xlink:type="simple" xlink:actuate="onLoad" xlink:show="embed"/></g><g fill="#E34234"><use x="63.037" y="25.393" xmlns:xlink="http://www.w3.org/1999/xlink" xlink:href="#u" xlink:type="simple" xlink:actuate="onLoad" xlink:show="embed"/></g><g fill="#E34234"><use x="65.23" y="25.393" xmlns:xlink="http://www.w3.org/1999/xlink" xlink:href="#v" xlink:type="simple" xlink:actuate="onLoad" xlink:show="embed"/></g><g fill="#E34234"><use x="66.036" y="25.393" xmlns:xlink="http://www.w3.org/1999/xlink" xlink:href="#v" xlink:type="simple" xlink:actuate="onLoad" xlink:show="embed"/></g><path fill="#070A0E" d="M 9.558594 24.734375 L 11.734375 24.734375 C 11.832031 24.734375 11.917969 24.769531 11.988281 24.839844 C 12.0625 24.910156 12.097656 24.996094 12.097656 25.097656 C 12.097656 25.195312 12.0625 25.28125 11.988281 25.355469 C 11.917969 25.425781 11.832031 25.460938 11.734375 25.460938 L 9.558594 25.460938 C 9.460938 25.460938 9.375 25.425781 9.304688 25.355469 C 9.234375 25.28125 9.199219 25.195312 9.199219 25.097656 C 9.199219 24.996094 9.234375 24.910156 9.304688 24.839844 C 9.375 24.769531 9.460938 24.734375 9.558594 24.734375 Z M 13.183594 24.734375 L 15.355469 24.734375 C 15.457031 24.734375 15.542969 24.769531 15.613281 24.839844 C 15.683594 24.910156 15.71875 24.996094 15.71875 25.097656 C 15.71875 25.195312 15.683594 25.28125 15.613281 25.355469 C 15.542969 25.425781 15.457031 25.460938 15.355469 25.460938 L 13.183594 25.460938 C 13.082031 25.460938 12.996094 25.425781 12.925781 25.355469 C 12.855469 25.28125 12.820312 25.195312 12.820312 25.097656 C 12.820312 24.996094 12.855469 24.910156 12.925781 24.839844 C 12.996094 24.769531 13.082031 24.734375 13.183594 24.734375 Z M 16.804688 24.734375 L 18.980469 24.734375 C 19.078125 24.734375 19.164062 24.769531 19.234375 24.839844 C 19.304688 24.910156 19.339844 24.996094 19.339844 25.097656 C 19.339844 25.195312 19.304688 25.28125 19.234375 25.355469 C 19.164062 25.425781 19.078125 25.460938 18.980469 25.460938 L 16.804688 25.460938 C 16.707031 25.460938 16.621094 25.425781 16.550781 25.355469 C 16.480469 25.28125 16.445312 25.195312 16.445312 25.097656 C 16.445312 24.996094 16.480469 24.910156 16.550781 24.839844 C 16.621094 24.769531 16.707031 24.734375 16.804688 24.734375 Z M 20.429688 24.734375 L 22.601562 24.734375 C 22.703125 24.734375 22.789062 24.769531 22.859375 24.839844 C 22.929688 24.910156 22.964844 24.996094 22.964844 25.097656 C 22.964844 25.195312 22.929688 25.28125 22.859375 25.355469 C 22.789062 25.425781 22.703125 25.460938 22.601562 25.460938 L 20.429688 25.460938 C 20.328125 25.460938 20.242188 25.425781 20.171875 25.355469 C 20.101562 25.28125 20.066406 25.195312 20.066406 25.097656 C 20.066406 24.996094 20.101562 24.910156 20.171875 24.839844 C 20.242188 24.769531 20.328125 24.734375 20.429688 24.734375 Z M 24.050781 24.734375 L 26.226562 24.734375 C 26.324219 24.734375 26.410156 24.769531 26.480469 24.839844 C 26.550781 24.910156 26.585938 24.996094 26.585938 25.097656 C 26.585938 25.195312 26.550781 25.28125 26.480469 25.355469 C 26.410156 25.425781 26.324219 25.460938 26.226562 25.460938 L 24.050781 25.460938 C 23.949219 25.460938 23.867188 25.425781 23.796875 25.355469 C 23.722656 25.28125 23.6875 25.195312 23.6875 25.097656 C 23.6875 24.996094 23.722656 24.910156 23.796875 24.839844 C 23.867188 24.769531 23.949219 24.734375 24.050781 24.734375 Z M 27.675781 24.734375 L 29.847656 24.734375 C 29.949219 24.734375 30.03125 24.769531 30.105469 24.839844 C 30.175781 24.910156 30.210938 24.996094 30.210938 25.097656 C 30.210938 25.195312 30.175781 25.28125 30.105469 25.355469 C 30.03125 25.425781 29.949219 25.460938 29.847656 25.460938 L 27.675781 25.460938 C 27.574219 25.460938 27.488281 25.425781 27.417969 25.355469 C 27.347656 25.28125 27.3125 25.195312 27.3125 25.097656 C 27.3125 24.996094 27.347656 24.910156 27.417969 24.839844 C 27.488281 24.769531 27.574219 24.734375 27.675781 24.734375 Z M 31.296875 24.734375 L 33.46875 24.734375 C 33.570312 24.734375 33.65625 24.769531 33.726562 24.839844 C 33.796875 24.910156 33.832031 24.996094 33.832031 25.097656 C 33.832031 25.195312 33.796875 25.28125 33.726562 25.355469 C 33.65625 25.425781 33.570312 25.460938 33.46875 25.460938 L 31.296875 25.460938 C 31.195312 25.460938 31.109375 25.425781 31.039062 25.355469 C 30.96875 25.28125 30.933594 25.195312 30.933594 25.097656 C 30.933594 24.996094 30.96875 24.910156 31.039062 24.839844 C 31.109375 24.769531 31.195312 24.734375 31.296875 24.734375 Z M 34.917969 24.734375 L 37.09375 24.734375 C 37.191406 24.734375 37.277344 24.769531 37.347656 24.839844 C 37.421875 24.910156 37.457031 24.996094 37.457031 25.097656 C 37.457031 25.195312 37.421875 25.28125 37.347656 25.355469 C 37.277344 25.425781 37.191406 25.460938 37.09375 25.460938 L 34.917969 25.460938 C 34.820312 25.460938 34.734375 25.425781 34.664062 25.355469 C 34.59375 25.28125 34.558594 25.195312 34.558594 25.097656 C 34.558594 24.996094 34.59375 24.910156 34.664062 24.839844 C 34.734375 24.769531 34.820312 24.734375 34.917969 24.734375 Z M 38.542969 24.734375 L 40.714844 24.734375 C 40.816406 24.734375 40.902344 24.769531 40.972656 24.839844 C 41.042969 24.910156 41.078125 24.996094 41.078125 25.097656 C 41.078125 25.195312 41.042969 25.28125 40.972656 25.355469 C 40.902344 25.425781 40.816406 25.460938 40.714844 25.460938 L 38.542969 25.460938 C 38.441406 25.460938 38.355469 25.425781 38.285156 25.355469 C 38.214844 25.28125 38.179688 25.195312 38.179688 25.097656 C 38.179688 24.996094 38.214844 24.910156 38.285156 24.839844 C 38.355469 24.769531 38.441406 24.734375 38.542969 24.734375 Z M 38.542969 24.734375"/></svg>